<svg xmlns="http://www.w3.org/2000/svg" width="2172" height="724" viewBox="0 0 2172 724" role="img" aria-label="dify-dsl-pipe logo">
  <title>dify-dsl-pipe</title>
  <rect width="2172" height="724" fill="#fff"/>
  <defs>
    <linearGradient id="bluePixelGradient" x1="0" y1="245" x2="0" y2="465" gradientUnits="userSpaceOnUse">
      <stop offset="0%" stop-color="#3AAAF7"/>
      <stop offset="44%" stop-color="#197AF4"/>
      <stop offset="100%" stop-color="#0758D9"/>
    </linearGradient>
  </defs>
  <path d="M247 269h70v1h-70ZM349 269h69v1h-69ZM477 269h116v1h-116ZM1025 269h68v1h-68ZM1290 269h68v1h-68ZM1691 269h67v1h-67ZM245 270h73v1h-73ZM347 270h72v1h-72ZM475 270h120v1h-120ZM1023 270h71v1h-71ZM1288 270h72v1h-72ZM1689 270h70v1h-70ZM244 271h75v1h-75ZM346 271h73v1h-73ZM474 271h121v1h-121ZM1022 271h72v1h-72ZM1287 271h73v1h-73ZM1688 271h71v1h-71ZM244 272h75v1h-75ZM346 272h74v1h-74ZM473 272h122v1h-122ZM1022 272h73v1h-73ZM1287 272h73v1h-73ZM1687 272h72v1h-72ZM244 273h75v1h-75ZM345 273h75v1h-75ZM473 273h122v1h-122ZM1022 273h73v1h-73ZM1287 273h73v1h-73ZM1687 273h72v1h-72ZM244 274h75v1h-75ZM346 274h74v1h-74ZM473 274h122v1h-122ZM1022 274h73v1h-73ZM1287 274h73v1h-73ZM1687 274h72v1h-72ZM244 275h75v1h-75ZM345 275h75v1h-75ZM473 275h122v1h-122ZM1022 275h73v1h-73ZM1287 275h73v1h-73ZM1687 275h72v1h-72ZM244 276h74v1h-74ZM345 276h74v1h-74ZM473 276h122v1h-122ZM1021 276h74v1h-74ZM1287 276h73v1h-73ZM1687 276h72v1h-72ZM244 277h74v1h-74ZM345 277h74v1h-74ZM473 277h121v1h-121ZM1021 277h74v1h-74ZM1287 277h73v1h-73ZM1687 277h71v1h-71ZM244 278h74v1h-74ZM345 278h74v1h-74ZM472 278h122v1h-122ZM1022 278h72v1h-72ZM1287 278h72v1h-72ZM1687 278h71v1h-71ZM244 279h74v1h-74ZM345 279h74v1h-74ZM472 279h122v1h-122ZM1022 279h72v1h-72ZM1287 279h72v1h-72ZM1687 279h71v1h-71ZM243 280h75v1h-75ZM345 280h74v1h-74ZM472 280h122v1h-122ZM1021 280h72v1h-72ZM1286 280h73v1h-73ZM1686 280h72v1h-72ZM243 281h75v1h-75ZM344 281h74v1h-74ZM472 281h122v1h-122ZM1021 281h72v1h-72ZM1286 281h73v1h-73ZM1686 281h72v1h-72ZM243 282h74v1h-74ZM344 282h74v1h-74ZM472 282h121v1h-121ZM1021 282h72v1h-72ZM1286 282h72v1h-72ZM1686 282h71v1h-71ZM243 283h74v1h-74ZM344 283h74v1h-74ZM457 283h136v1h-136ZM1021 283h71v1h-71ZM1286 283h72v1h-72ZM1686 283h71v1h-71ZM243 284h74v1h-74ZM344 284h74v1h-74ZM455 284h138v1h-138ZM1021 284h71v1h-71ZM1286 284h72v1h-72ZM1686 284h71v1h-71ZM242 285h75v1h-75ZM344 285h74v1h-74ZM453 285h140v1h-140ZM1021 285h71v1h-71ZM1284 285h1v1h-1ZM1286 285h72v1h-72ZM1686 285h71v1h-71ZM242 286h75v1h-75ZM344 286h73v1h-73ZM453 286h139v1h-139Z
    M1021 286h71v1h-71ZM1286 286h72v1h-72ZM1686 286h71v1h-71ZM232 287h85v1h-85ZM334 287h83v1h-83ZM452 287h140v1h-140ZM1010 287h81v1h-81ZM1275 287h82v1h-82ZM1676 287h80v1h-80ZM231 288h86v1h-86ZM333 288h84v1h-84ZM452 288h140v1h-140ZM1010 288h81v1h-81ZM1275 288h82v1h-82ZM1675 288h81v1h-81ZM231 289h86v1h-86ZM333 289h84v1h-84ZM452 289h140v1h-140ZM1010 289h81v1h-81ZM1275 289h82v1h-82ZM1675 289h81v1h-81ZM231 290h86v1h-86ZM332 290h85v1h-85ZM452 290h140v1h-140ZM1009 290h82v1h-82ZM1274 290h83v1h-83ZM1675 290h81v1h-81ZM231 291h85v1h-85ZM332 291h85v1h-85ZM452 291h139v1h-139ZM1009 291h82v1h-82ZM1274 291h82v1h-82ZM1674 291h81v1h-81ZM230 292h86v1h-86ZM332 292h84v1h-84ZM452 292h139v1h-139ZM1009 292h82v1h-82ZM1273 292h83v1h-83ZM1674 292h81v1h-81ZM230 293h86v1h-86ZM332 293h84v1h-84ZM451 293h140v1h-140ZM1009 293h82v1h-82ZM1273 293h83v1h-83ZM1674 293h81v1h-81ZM231 294h85v1h-85ZM332 294h84v1h-84ZM451 294h140v1h-140ZM1009 294h82v1h-82ZM1273 294h83v1h-83ZM1674 294h81v1h-81ZM231 295h85v1h-85ZM332 295h84v1h-84ZM451 295h140v1h-140ZM1009 295h82v1h-82ZM1273 295h83v1h-83ZM1674 295h81v1h-81ZM231 296h84v1h-84ZM332 296h84v1h-84ZM451 296h140v1h-140ZM1009 296h81v1h-81ZM1274 296h81v1h-81ZM1674 296h81v1h-81ZM231 297h84v1h-84ZM332 297h83v1h-83ZM450 297h140v1h-140ZM1009 297h81v1h-81ZM1274 297h81v1h-81ZM1674 297h80v1h-80ZM231 298h83v1h-83ZM332 298h82v1h-82ZM449 298h141v1h-141ZM1009 298h80v1h-80ZM1274 298h80v1h-80ZM1674 298h80v1h-80ZM231 299h77v1h-77ZM332 299h78v1h-78ZM412 299h1v1h-1ZM449 299h140v1h-140ZM1009 299h78v1h-78ZM1273 299h76v1h-76ZM1673 299h73v1h-73ZM231 300h77v1h-77ZM331 300h75v1h-75ZM449 300h139v1h-139ZM1009 300h78v1h-78ZM1273 300h76v1h-76ZM1673 300h73v1h-73ZM231 301h77v1h-77ZM332 301h75v1h-75ZM448 301h140v1h-140ZM1009 301h77v1h-77ZM1273 301h76v1h-76ZM1673 301h73v1h-73ZM231 302h77v1h-77ZM332 302h74v1h-74ZM448 302h131v1h-131ZM1009 302h77v1h-77ZM1273 302h76v1h-76ZM1673 302h73v1h-73ZM231 303h77v1h-77ZM332 303h74v1h-74ZM448 303h132v1h-132ZM1009 303h74v1h-74ZM1273 303h76v1h-76ZM1673 303h73v1h-73Z
    M230 304h77v1h-77ZM331 304h75v1h-75ZM448 304h131v1h-131ZM1009 304h76v1h-76ZM1273 304h76v1h-76ZM1673 304h73v1h-73ZM230 305h77v1h-77ZM331 305h75v1h-75ZM447 305h132v1h-132ZM1009 305h74v1h-74ZM1273 305h75v1h-75ZM1673 305h73v1h-73ZM228 306h1v1h-1ZM230 306h77v1h-77ZM331 306h75v1h-75ZM448 306h131v1h-131ZM1009 306h74v1h-74ZM1273 306h75v1h-75ZM1673 306h73v1h-73ZM230 307h77v1h-77ZM331 307h74v1h-74ZM447 307h132v1h-132ZM1009 307h74v1h-74ZM1273 307h75v1h-75ZM1673 307h73v1h-73ZM137 308h170v1h-170ZM331 308h74v1h-74ZM443 308h136v1h-136ZM914 308h168v1h-168ZM1117 308h138v1h-138ZM1273 308h75v1h-75ZM1500 308h136v1h-136ZM1672 308h73v1h-73ZM1781 308h129v1h-129ZM1980 308h3v1h-3ZM1995 308h98v1h-98ZM135 309h171v1h-171ZM331 309h74v1h-74ZM442 309h137v1h-137ZM586 309h64v1h-64ZM694 309h66v1h-66ZM912 309h170v1h-170ZM1115 309h142v1h-142ZM1273 309h74v1h-74ZM1498 309h139v1h-139ZM1672 309h73v1h-73ZM1780 309h131v1h-131ZM1961 309h135v1h-135ZM134 310h172v1h-172ZM331 310h74v1h-74ZM442 310h136v1h-136ZM585 310h66v1h-66ZM693 310h68v1h-68ZM910 310h172v1h-172ZM1114 310h143v1h-143ZM1269 310h78v1h-78ZM1496 310h142v1h-142ZM1672 310h73v1h-73ZM1778 310h134v1h-134ZM1960 310h136v1h-136ZM133 311h173v1h-173ZM331 311h74v1h-74ZM442 311h136v1h-136ZM584 311h68v1h-68ZM692 311h69v1h-69ZM910 311h172v1h-172ZM1113 311h144v1h-144ZM1269 311h78v1h-78ZM1495 311h143v1h-143ZM1672 311h73v1h-73ZM1777 311h135v1h-135ZM1959 311h138v1h-138ZM133 312h173v1h-173ZM330 312h75v1h-75ZM442 312h136v1h-136ZM583 312h69v1h-69ZM692 312h69v1h-69ZM909 312h172v1h-172ZM1113 312h144v1h-144ZM1268 312h78v1h-78ZM1495 312h143v1h-143ZM1672 312h73v1h-73ZM1777 312h135v1h-135ZM1959 312h138v1h-138ZM133 313h172v1h-172ZM330 313h75v1h-75ZM442 313h136v1h-136ZM583 313h69v1h-69ZM692 313h69v1h-69ZM910 313h171v1h-171ZM1113 313h144v1h-144ZM1268 313h78v1h-78ZM1495 313h143v1h-143ZM1672 313h72v1h-72ZM1777 313h135v1h-135ZM1959 313h138v1h-138ZM133 314h172v1h-172ZM330 314h75v1h-75ZM442 314h136v1h-136ZM583 314h69v1h-69ZM691 314h70v1h-70ZM909 314h172v1h-172ZM1113 314h144v1h-144Z
    M1267 314h79v1h-79ZM1495 314h143v1h-143ZM1672 314h72v1h-72ZM1776 314h136v1h-136ZM1959 314h138v1h-138ZM133 315h172v1h-172ZM330 315h74v1h-74ZM441 315h137v1h-137ZM583 315h69v1h-69ZM691 315h70v1h-70ZM909 315h172v1h-172ZM1113 315h144v1h-144ZM1267 315h79v1h-79ZM1495 315h143v1h-143ZM1672 315h72v1h-72ZM1776 315h136v1h-136ZM1959 315h138v1h-138ZM133 316h172v1h-172ZM330 316h73v1h-73ZM441 316h137v1h-137ZM583 316h69v1h-69ZM691 316h69v1h-69ZM909 316h171v1h-171ZM1113 316h144v1h-144ZM1267 316h79v1h-79ZM1494 316h144v1h-144ZM1672 316h71v1h-71ZM1776 316h136v1h-136ZM1959 316h137v1h-137ZM132 317h172v1h-172ZM329 317h74v1h-74ZM441 317h137v1h-137ZM583 317h68v1h-68ZM691 317h69v1h-69ZM909 317h171v1h-171ZM1112 317h144v1h-144ZM1267 317h78v1h-78ZM1494 317h144v1h-144ZM1672 317h71v1h-71ZM1776 317h135v1h-135ZM1958 317h138v1h-138ZM132 318h172v1h-172ZM329 318h74v1h-74ZM441 318h136v1h-136ZM583 318h68v1h-68ZM691 318h69v1h-69ZM909 318h171v1h-171ZM1112 318h144v1h-144ZM1267 318h78v1h-78ZM1494 318h143v1h-143ZM1672 318h71v1h-71ZM1776 318h135v1h-135ZM1958 318h138v1h-138ZM132 319h172v1h-172ZM330 319h72v1h-72ZM441 319h136v1h-136ZM583 319h68v1h-68ZM691 319h69v1h-69ZM909 319h171v1h-171ZM1112 319h144v1h-144ZM1266 319h79v1h-79ZM1494 319h143v1h-143ZM1672 319h70v1h-70ZM1775 319h136v1h-136ZM1958 319h138v1h-138ZM132 320h172v1h-172ZM331 320h70v1h-70ZM441 320h136v1h-136ZM582 320h69v1h-69ZM690 320h70v1h-70ZM909 320h170v1h-170ZM1112 320h144v1h-144ZM1266 320h78v1h-78ZM1494 320h143v1h-143ZM1674 320h63v1h-63ZM1775 320h136v1h-136ZM1958 320h138v1h-138ZM132 321h171v1h-171ZM331 321h29v1h-29ZM374 321h26v1h-26ZM441 321h135v1h-135ZM582 321h69v1h-69ZM690 321h70v1h-70ZM896 321h5v1h-5ZM904 321h4v1h-4ZM909 321h170v1h-170ZM1112 321h144v1h-144ZM1266 321h78v1h-78ZM1494 321h143v1h-143ZM1775 321h135v1h-135ZM1958 321h138v1h-138ZM116 322h187v1h-187ZM441 322h135v1h-135ZM582 322h69v1h-69ZM690 322h69v1h-69ZM892 322h187v1h-187ZM1112 322h144v1h-144ZM1266 322h78v1h-78ZM1494 322h143v1h-143ZM1775 322h135v1h-135ZM1958 322h149v1h-149Z
    M115 323h188v1h-188ZM441 323h133v1h-133ZM580 323h1v1h-1ZM582 323h69v1h-69ZM690 323h69v1h-69ZM891 323h188v1h-188ZM1112 323h144v1h-144ZM1266 323h78v1h-78ZM1494 323h143v1h-143ZM1775 323h135v1h-135ZM1957 323h151v1h-151ZM113 324h190v1h-190ZM439 324h104v1h-104ZM582 324h69v1h-69ZM690 324h69v1h-69ZM890 324h189v1h-189ZM1099 324h157v1h-157ZM1266 324h78v1h-78ZM1483 324h167v1h-167ZM1762 324h160v1h-160ZM1945 324h164v1h-164ZM113 325h189v1h-189ZM438 325h105v1h-105ZM581 325h70v1h-70ZM690 325h68v1h-68ZM890 325h188v1h-188ZM1098 325h157v1h-157ZM1266 325h77v1h-77ZM1482 325h168v1h-168ZM1761 325h161v1h-161ZM1944 325h166v1h-166ZM113 326h189v1h-189ZM437 326h106v1h-106ZM581 326h69v1h-69ZM690 326h68v1h-68ZM890 326h188v1h-188ZM1097 326h158v1h-158ZM1266 326h77v1h-77ZM1481 326h170v1h-170ZM1760 326h163v1h-163ZM1944 326h166v1h-166ZM113 327h189v1h-189ZM437 327h106v1h-106ZM581 327h70v1h-70ZM690 327h68v1h-68ZM890 327h188v1h-188ZM1097 327h158v1h-158ZM1266 327h77v1h-77ZM1481 327h170v1h-170ZM1760 327h164v1h-164ZM1943 327h167v1h-167ZM113 328h189v1h-189ZM436 328h107v1h-107ZM581 328h69v1h-69ZM689 328h69v1h-69ZM889 328h189v1h-189ZM1096 328h159v1h-159ZM1265 328h78v1h-78ZM1481 328h170v1h-170ZM1760 328h164v1h-164ZM1943 328h167v1h-167ZM113 329h188v1h-188ZM436 329h106v1h-106ZM581 329h68v1h-68ZM689 329h68v1h-68ZM889 329h188v1h-188ZM1096 329h159v1h-159ZM1265 329h77v1h-77ZM1480 329h171v1h-171ZM1760 329h164v1h-164ZM1943 329h167v1h-167ZM113 330h188v1h-188ZM436 330h106v1h-106ZM581 330h68v1h-68ZM689 330h68v1h-68ZM889 330h188v1h-188ZM1096 330h158v1h-158ZM1265 330h77v1h-77ZM1480 330h171v1h-171ZM1760 330h164v1h-164ZM1942 330h168v1h-168ZM113 331h188v1h-188ZM436 331h105v1h-105ZM581 331h68v1h-68ZM683 331h74v1h-74ZM889 331h188v1h-188ZM1096 331h158v1h-158ZM1264 331h78v1h-78ZM1480 331h171v1h-171ZM1760 331h163v1h-163ZM1942 331h168v1h-168ZM113 332h188v1h-188ZM437 332h104v1h-104ZM576 332h73v1h-73ZM682 332h74v1h-74ZM889 332h188v1h-188ZM1096 332h157v1h-157ZM1263 332h79v1h-79ZM1480 332h170v1h-170ZM1760 332h163v1h-163Z
    M1942 332h167v1h-167ZM112 333h189v1h-189ZM437 333h104v1h-104ZM546 333h7v1h-7ZM575 333h74v1h-74ZM681 333h75v1h-75ZM889 333h188v1h-188ZM1078 333h1v1h-1ZM1096 333h156v1h-156ZM1262 333h80v1h-80ZM1480 333h170v1h-170ZM1760 333h162v1h-162ZM1942 333h167v1h-167ZM112 334h189v1h-189ZM323 334h71v1h-71ZM437 334h122v1h-122ZM574 334h74v1h-74ZM681 334h75v1h-75ZM889 334h188v1h-188ZM1096 334h156v1h-156ZM1261 334h81v1h-81ZM1480 334h170v1h-170ZM1665 334h70v1h-70ZM1760 334h162v1h-162ZM1942 334h167v1h-167ZM112 335h189v1h-189ZM322 335h73v1h-73ZM437 335h122v1h-122ZM574 335h74v1h-74ZM681 335h75v1h-75ZM889 335h188v1h-188ZM1096 335h156v1h-156ZM1261 335h81v1h-81ZM1480 335h169v1h-169ZM1664 335h72v1h-72ZM1760 335h162v1h-162ZM1942 335h167v1h-167ZM102 336h1v1h-1ZM112 336h189v1h-189ZM321 336h75v1h-75ZM437 336h123v1h-123ZM574 336h74v1h-74ZM681 336h75v1h-75ZM888 336h188v1h-188ZM1087 336h1v1h-1ZM1096 336h150v1h-150ZM1261 336h80v1h-80ZM1476 336h1v1h-1ZM1478 336h1v1h-1ZM1480 336h169v1h-169ZM1663 336h74v1h-74ZM1760 336h162v1h-162ZM1942 336h166v1h-166ZM101 337h199v1h-199ZM319 337h77v1h-77ZM414 337h146v1h-146ZM574 337h74v1h-74ZM680 337h75v1h-75ZM880 337h196v1h-196ZM1086 337h160v1h-160ZM1261 337h80v1h-80ZM1473 337h176v1h-176ZM1662 337h75v1h-75ZM1752 337h169v1h-169ZM1933 337h175v1h-175ZM99 338h200v1h-200ZM319 338h77v1h-77ZM413 338h147v1h-147ZM574 338h72v1h-72ZM680 338h74v1h-74ZM879 338h194v1h-194ZM1085 338h161v1h-161ZM1260 338h79v1h-79ZM1473 338h175v1h-175ZM1662 338h75v1h-75ZM1751 338h170v1h-170ZM1932 338h176v1h-176ZM99 339h196v1h-196ZM318 339h78v1h-78ZM412 339h148v1h-148ZM574 339h72v1h-72ZM680 339h74v1h-74ZM878 339h193v1h-193ZM1084 339h161v1h-161ZM1260 339h76v1h-76ZM1473 339h175v1h-175ZM1662 339h75v1h-75ZM1750 339h171v1h-171ZM1932 339h176v1h-176ZM99 340h196v1h-196ZM318 340h78v1h-78ZM412 340h148v1h-148ZM574 340h72v1h-72ZM680 340h73v1h-73ZM878 340h192v1h-192ZM1084 340h161v1h-161ZM1260 340h76v1h-76ZM1472 340h176v1h-176ZM1662 340h75v1h-75ZM1750 340h171v1h-171ZM1931 340h176v1h-176ZM98 341h197v1h-197Z
    M318 341h78v1h-78ZM412 341h148v1h-148ZM573 341h72v1h-72ZM680 341h72v1h-72ZM878 341h192v1h-192ZM1084 341h161v1h-161ZM1260 341h75v1h-75ZM1472 341h176v1h-176ZM1661 341h76v1h-76ZM1750 341h170v1h-170ZM1931 341h176v1h-176ZM98 342h197v1h-197ZM318 342h78v1h-78ZM412 342h147v1h-147ZM573 342h72v1h-72ZM680 342h72v1h-72ZM877 342h193v1h-193ZM1083 342h162v1h-162ZM1259 342h76v1h-76ZM1472 342h175v1h-175ZM1661 342h76v1h-76ZM1750 342h170v1h-170ZM1931 342h176v1h-176ZM98 343h197v1h-197ZM318 343h77v1h-77ZM411 343h148v1h-148ZM573 343h72v1h-72ZM680 343h72v1h-72ZM877 343h193v1h-193ZM1083 343h162v1h-162ZM1259 343h76v1h-76ZM1472 343h175v1h-175ZM1661 343h75v1h-75ZM1750 343h170v1h-170ZM1931 343h175v1h-175ZM98 344h197v1h-197ZM318 344h77v1h-77ZM409 344h1v1h-1ZM411 344h148v1h-148ZM573 344h72v1h-72ZM680 344h71v1h-71ZM877 344h192v1h-192ZM1083 344h161v1h-161ZM1259 344h76v1h-76ZM1472 344h175v1h-175ZM1661 344h76v1h-76ZM1750 344h170v1h-170ZM1931 344h175v1h-175ZM98 345h197v1h-197ZM318 345h77v1h-77ZM411 345h147v1h-147ZM573 345h72v1h-72ZM680 345h71v1h-71ZM877 345h192v1h-192ZM1083 345h161v1h-161ZM1259 345h76v1h-76ZM1472 345h174v1h-174ZM1660 345h76v1h-76ZM1749 345h170v1h-170ZM1930 345h176v1h-176ZM98 346h196v1h-196ZM317 346h78v1h-78ZM411 346h147v1h-147ZM573 346h72v1h-72ZM680 346h70v1h-70ZM765 346h94v1h-94ZM876 346h193v1h-193ZM1083 346h161v1h-161ZM1259 346h75v1h-75ZM1362 346h90v1h-90ZM1472 346h174v1h-174ZM1660 346h76v1h-76ZM1749 346h170v1h-170ZM1930 346h175v1h-175ZM98 347h196v1h-196ZM317 347h77v1h-77ZM410 347h148v1h-148ZM573 347h72v1h-72ZM680 347h70v1h-70ZM764 347h96v1h-96ZM877 347h192v1h-192ZM1082 347h162v1h-162ZM1259 347h75v1h-75ZM1361 347h92v1h-92ZM1471 347h175v1h-175ZM1660 347h76v1h-76ZM1749 347h170v1h-170ZM1930 347h175v1h-175ZM98 348h196v1h-196ZM317 348h77v1h-77ZM410 348h148v1h-148ZM572 348h73v1h-73ZM680 348h70v1h-70ZM764 348h97v1h-97ZM877 348h192v1h-192ZM1082 348h162v1h-162ZM1259 348h75v1h-75ZM1360 348h94v1h-94ZM1471 348h175v1h-175ZM1660 348h76v1h-76ZM1749 348h170v1h-170ZM1930 348h175v1h-175Z
    M98 349h196v1h-196ZM317 349h77v1h-77ZM410 349h147v1h-147ZM572 349h72v1h-72ZM680 349h70v1h-70ZM763 349h98v1h-98ZM862 349h1v1h-1ZM876 349h192v1h-192ZM1082 349h162v1h-162ZM1259 349h75v1h-75ZM1359 349h95v1h-95ZM1471 349h174v1h-174ZM1660 349h75v1h-75ZM1748 349h170v1h-170ZM1930 349h174v1h-174ZM97 350h196v1h-196ZM316 350h78v1h-78ZM410 350h147v1h-147ZM572 350h71v1h-71ZM679 350h70v1h-70ZM763 350h98v1h-98ZM876 350h192v1h-192ZM1082 350h161v1h-161ZM1258 350h75v1h-75ZM1359 350h95v1h-95ZM1470 350h175v1h-175ZM1659 350h76v1h-76ZM1748 350h170v1h-170ZM1930 350h174v1h-174ZM97 351h196v1h-196ZM316 351h78v1h-78ZM410 351h146v1h-146ZM572 351h67v1h-67ZM679 351h70v1h-70ZM763 351h98v1h-98ZM876 351h192v1h-192ZM1082 351h72v1h-72ZM1155 351h87v1h-87ZM1258 351h75v1h-75ZM1359 351h95v1h-95ZM1470 351h175v1h-175ZM1659 351h76v1h-76ZM1748 351h170v1h-170ZM1930 351h68v1h-68ZM2002 351h102v1h-102ZM97 352h196v1h-196ZM316 352h77v1h-77ZM409 352h147v1h-147ZM572 352h67v1h-67ZM679 352h70v1h-70ZM763 352h98v1h-98ZM876 352h192v1h-192ZM1081 352h67v1h-67ZM1258 352h75v1h-75ZM1359 352h95v1h-95ZM1470 352h175v1h-175ZM1659 352h76v1h-76ZM1748 352h170v1h-170ZM1930 352h68v1h-68ZM2041 352h63v1h-63ZM97 353h196v1h-196ZM316 353h77v1h-77ZM407 353h1v1h-1ZM409 353h147v1h-147ZM570 353h1v1h-1ZM572 353h67v1h-67ZM679 353h70v1h-70ZM762 353h99v1h-99ZM876 353h191v1h-191ZM1081 353h67v1h-67ZM1258 353h75v1h-75ZM1359 353h95v1h-95ZM1470 353h175v1h-175ZM1657 353h1v1h-1ZM1659 353h76v1h-76ZM1748 353h169v1h-169ZM1930 353h68v1h-68ZM2039 353h1v1h-1ZM2041 353h63v1h-63ZM97 354h196v1h-196ZM316 354h77v1h-77ZM407 354h1v1h-1ZM409 354h147v1h-147ZM572 354h66v1h-66ZM678 354h70v1h-70ZM762 354h99v1h-99ZM875 354h192v1h-192ZM1081 354h67v1h-67ZM1258 354h75v1h-75ZM1358 354h95v1h-95ZM1470 354h174v1h-174ZM1658 354h76v1h-76ZM1748 354h169v1h-169ZM1929 354h69v1h-69ZM2041 354h63v1h-63ZM97 355h196v1h-196ZM316 355h77v1h-77ZM407 355h1v1h-1ZM409 355h146v1h-146ZM571 355h67v1h-67ZM678 355h70v1h-70ZM760 355h1v1h-1ZM762 355h98v1h-98ZM875 355h192v1h-192ZM1079 355h1v1h-1Z
    M1081 355h66v1h-66ZM1257 355h75v1h-75ZM1358 355h95v1h-95ZM1470 355h174v1h-174ZM1658 355h76v1h-76ZM1748 355h168v1h-168ZM1929 355h68v1h-68ZM2040 355h64v1h-64ZM97 356h196v1h-196ZM316 356h77v1h-77ZM409 356h147v1h-147ZM571 356h67v1h-67ZM677 356h71v1h-71ZM760 356h1v1h-1ZM762 356h98v1h-98ZM875 356h192v1h-192ZM1068 356h1v1h-1ZM1080 356h67v1h-67ZM1257 356h75v1h-75ZM1358 356h95v1h-95ZM1470 356h174v1h-174ZM1656 356h1v1h-1ZM1658 356h76v1h-76ZM1747 356h169v1h-169ZM1929 356h68v1h-68ZM2040 356h64v1h-64ZM96 357h196v1h-196ZM316 357h77v1h-77ZM409 357h146v1h-146ZM571 357h67v1h-67ZM677 357h71v1h-71ZM760 357h1v1h-1ZM762 357h98v1h-98ZM875 357h192v1h-192ZM1068 357h1v1h-1ZM1081 357h66v1h-66ZM1253 357h79v1h-79ZM1358 357h95v1h-95ZM1468 357h176v1h-176ZM1658 357h76v1h-76ZM1747 357h169v1h-169ZM1929 357h68v1h-68ZM2039 357h64v1h-64ZM96 358h196v1h-196ZM310 358h83v1h-83ZM409 358h146v1h-146ZM568 358h69v1h-69ZM677 358h71v1h-71ZM762 358h98v1h-98ZM875 358h192v1h-192ZM1068 358h1v1h-1ZM1080 358h67v1h-67ZM1253 358h79v1h-79ZM1358 358h95v1h-95ZM1466 358h178v1h-178ZM1658 358h75v1h-75ZM1746 358h170v1h-170ZM1929 358h68v1h-68ZM2039 358h64v1h-64ZM95 359h197v1h-197ZM310 359h83v1h-83ZM408 359h147v1h-147ZM568 359h69v1h-69ZM676 359h72v1h-72ZM761 359h98v1h-98ZM874 359h193v1h-193ZM1080 359h67v1h-67ZM1252 359h80v1h-80ZM1358 359h94v1h-94ZM1464 359h180v1h-180ZM1655 359h78v1h-78ZM1745 359h171v1h-171ZM1925 359h72v1h-72ZM2039 359h64v1h-64ZM95 360h75v1h-75ZM171 360h41v1h-41ZM213 360h79v1h-79ZM309 360h83v1h-83ZM406 360h149v1h-149ZM568 360h69v1h-69ZM676 360h71v1h-71ZM761 360h99v1h-99ZM873 360h193v1h-193ZM1080 360h67v1h-67ZM1251 360h80v1h-80ZM1357 360h95v1h-95ZM1464 360h75v1h-75ZM1540 360h1v1h-1ZM1564 360h80v1h-80ZM1655 360h78v1h-78ZM1744 360h171v1h-171ZM1925 360h72v1h-72ZM2038 360h65v1h-65ZM95 361h75v1h-75ZM213 361h79v1h-79ZM309 361h83v1h-83ZM405 361h150v1h-150ZM567 361h70v1h-70ZM675 361h72v1h-72ZM761 361h99v1h-99ZM873 361h74v1h-74ZM990 361h76v1h-76ZM1079 361h68v1h-68ZM1251 361h80v1h-80ZM1357 361h95v1h-95ZM1464 361h74v1h-74Z
    M1576 361h68v1h-68ZM1654 361h79v1h-79ZM1744 361h70v1h-70ZM1852 361h63v1h-63ZM1924 361h72v1h-72ZM2038 361h65v1h-65ZM94 362h76v1h-76ZM213 362h79v1h-79ZM309 362h83v1h-83ZM404 362h151v1h-151ZM567 362h69v1h-69ZM675 362h72v1h-72ZM761 362h98v1h-98ZM873 362h74v1h-74ZM989 362h77v1h-77ZM1078 362h68v1h-68ZM1251 362h80v1h-80ZM1357 362h95v1h-95ZM1463 362h75v1h-75ZM1576 362h68v1h-68ZM1654 362h79v1h-79ZM1744 362h70v1h-70ZM1852 362h64v1h-64ZM1924 362h72v1h-72ZM2038 362h65v1h-65ZM95 363h75v1h-75ZM213 363h78v1h-78ZM309 363h83v1h-83ZM404 363h150v1h-150ZM567 363h69v1h-69ZM638 363h3v1h-3ZM654 363h93v1h-93ZM761 363h98v1h-98ZM873 363h74v1h-74ZM989 363h77v1h-77ZM1078 363h68v1h-68ZM1147 363h9v1h-9ZM1251 363h80v1h-80ZM1357 363h95v1h-95ZM1463 363h75v1h-75ZM1576 363h68v1h-68ZM1654 363h79v1h-79ZM1743 363h71v1h-71ZM1852 363h63v1h-63ZM1924 363h71v1h-71ZM2039 363h64v1h-64ZM94 364h76v1h-76ZM213 364h78v1h-78ZM309 364h82v1h-82ZM404 364h150v1h-150ZM567 364h180v1h-180ZM761 364h98v1h-98ZM860 364h1v1h-1ZM873 364h74v1h-74ZM989 364h76v1h-76ZM1078 364h145v1h-145ZM1251 364h79v1h-79ZM1357 364h95v1h-95ZM1463 364h75v1h-75ZM1576 364h68v1h-68ZM1653 364h80v1h-80ZM1743 364h70v1h-70ZM1852 364h63v1h-63ZM1916 364h1v1h-1ZM1924 364h179v1h-179ZM94 365h76v1h-76ZM213 365h77v1h-77ZM309 365h82v1h-82ZM404 365h150v1h-150ZM567 365h179v1h-179ZM760 365h99v1h-99ZM860 365h1v1h-1ZM873 365h73v1h-73ZM987 365h1v1h-1ZM989 365h76v1h-76ZM1078 365h146v1h-146ZM1251 365h79v1h-79ZM1357 365h95v1h-95ZM1463 365h75v1h-75ZM1576 365h67v1h-67ZM1654 365h79v1h-79ZM1743 365h70v1h-70ZM1852 365h63v1h-63ZM1916 365h1v1h-1ZM1924 365h179v1h-179ZM94 366h75v1h-75ZM211 366h1v1h-1ZM213 366h77v1h-77ZM309 366h82v1h-82ZM404 366h149v1h-149ZM567 366h179v1h-179ZM756 366h2v1h-2ZM760 366h99v1h-99ZM860 366h1v1h-1ZM873 366h73v1h-73ZM987 366h1v1h-1ZM989 366h76v1h-76ZM1077 366h147v1h-147ZM1251 366h79v1h-79ZM1353 366h99v1h-99ZM1463 366h74v1h-74ZM1576 366h67v1h-67ZM1653 366h80v1h-80ZM1743 366h70v1h-70ZM1852 366h62v1h-62ZM1923 366h179v1h-179ZM94 367h75v1h-75ZM213 367h77v1h-77Z
    M309 367h81v1h-81ZM404 367h149v1h-149ZM567 367h178v1h-178ZM755 367h104v1h-104ZM873 367h73v1h-73ZM989 367h76v1h-76ZM1077 367h147v1h-147ZM1251 367h79v1h-79ZM1352 367h100v1h-100ZM1463 367h74v1h-74ZM1576 367h66v1h-66ZM1653 367h79v1h-79ZM1743 367h70v1h-70ZM1851 367h63v1h-63ZM1923 367h179v1h-179ZM94 368h75v1h-75ZM212 368h76v1h-76ZM308 368h81v1h-81ZM404 368h148v1h-148ZM567 368h178v1h-178ZM755 368h104v1h-104ZM873 368h73v1h-73ZM988 368h77v1h-77ZM1077 368h147v1h-147ZM1251 368h79v1h-79ZM1352 368h100v1h-100ZM1462 368h75v1h-75ZM1575 368h66v1h-66ZM1653 368h78v1h-78ZM1743 368h70v1h-70ZM1851 368h62v1h-62ZM1923 368h171v1h-171ZM2095 368h5v1h-5ZM94 369h75v1h-75ZM212 369h74v1h-74ZM308 369h78v1h-78ZM404 369h141v1h-141ZM566 369h174v1h-174ZM755 369h103v1h-103ZM873 369h73v1h-73ZM988 369h75v1h-75ZM1077 369h147v1h-147ZM1251 369h79v1h-79ZM1351 369h100v1h-100ZM1462 369h75v1h-75ZM1575 369h62v1h-62ZM1653 369h77v1h-77ZM1743 369h69v1h-69ZM1851 369h59v1h-59ZM1923 369h171v1h-171ZM94 370h75v1h-75ZM212 370h74v1h-74ZM308 370h78v1h-78ZM404 370h141v1h-141ZM566 370h173v1h-173ZM755 370h98v1h-98ZM854 370h1v1h-1ZM873 370h73v1h-73ZM988 370h74v1h-74ZM1076 370h148v1h-148ZM1251 370h79v1h-79ZM1351 370h96v1h-96ZM1462 370h75v1h-75ZM1575 370h62v1h-62ZM1653 370h73v1h-73ZM1743 370h69v1h-69ZM1851 370h59v1h-59ZM1923 370h171v1h-171ZM94 371h75v1h-75ZM212 371h73v1h-73ZM308 371h78v1h-78ZM404 371h141v1h-141ZM566 371h173v1h-173ZM755 371h98v1h-98ZM873 371h73v1h-73ZM988 371h72v1h-72ZM1076 371h148v1h-148ZM1251 371h79v1h-79ZM1351 371h96v1h-96ZM1462 371h75v1h-75ZM1575 371h62v1h-62ZM1653 371h73v1h-73ZM1743 371h69v1h-69ZM1851 371h59v1h-59ZM1923 371h171v1h-171ZM94 372h75v1h-75ZM212 372h73v1h-73ZM308 372h77v1h-77ZM403 372h142v1h-142ZM564 372h1v1h-1ZM566 372h173v1h-173ZM755 372h98v1h-98ZM872 372h74v1h-74ZM988 372h70v1h-70ZM1076 372h148v1h-148ZM1251 372h79v1h-79ZM1351 372h96v1h-96ZM1462 372h75v1h-75ZM1575 372h61v1h-61ZM1653 372h73v1h-73ZM1743 372h69v1h-69ZM1851 372h59v1h-59ZM1923 372h171v1h-171ZM94 373h75v1h-75ZM212 373h73v1h-73Z
    M308 373h77v1h-77ZM403 373h141v1h-141ZM564 373h1v1h-1ZM566 373h173v1h-173ZM755 373h98v1h-98ZM872 373h73v1h-73ZM988 373h70v1h-70ZM1075 373h149v1h-149ZM1250 373h80v1h-80ZM1351 373h95v1h-95ZM1462 373h75v1h-75ZM1574 373h62v1h-62ZM1652 373h73v1h-73ZM1743 373h68v1h-68ZM1851 373h58v1h-58ZM1923 373h171v1h-171ZM94 374h74v1h-74ZM212 374h73v1h-73ZM308 374h77v1h-77ZM403 374h141v1h-141ZM566 374h173v1h-173ZM754 374h99v1h-99ZM872 374h73v1h-73ZM988 374h70v1h-70ZM1075 374h160v1h-160ZM1250 374h79v1h-79ZM1351 374h95v1h-95ZM1462 374h74v1h-74ZM1574 374h62v1h-62ZM1652 374h73v1h-73ZM1740 374h1v1h-1ZM1743 374h68v1h-68ZM1850 374h59v1h-59ZM1922 374h172v1h-172ZM93 375h75v1h-75ZM211 375h74v1h-74ZM308 375h77v1h-77ZM403 375h141v1h-141ZM563 375h176v1h-176ZM754 375h99v1h-99ZM872 375h73v1h-73ZM987 375h71v1h-71ZM1075 375h161v1h-161ZM1246 375h83v1h-83ZM1351 375h95v1h-95ZM1462 375h74v1h-74ZM1574 375h62v1h-62ZM1652 375h73v1h-73ZM1742 375h68v1h-68ZM1850 375h59v1h-59ZM1922 375h172v1h-172ZM93 376h74v1h-74ZM211 376h74v1h-74ZM308 376h77v1h-77ZM402 376h142v1h-142ZM563 376h176v1h-176ZM754 376h99v1h-99ZM869 376h75v1h-75ZM987 376h71v1h-71ZM1075 376h161v1h-161ZM1246 376h82v1h-82ZM1350 376h96v1h-96ZM1461 376h74v1h-74ZM1574 376h61v1h-61ZM1652 376h73v1h-73ZM1738 376h72v1h-72ZM1850 376h59v1h-59ZM1921 376h173v1h-173ZM87 377h72v1h-72ZM212 377h72v1h-72ZM308 377h76v1h-76ZM402 377h141v1h-141ZM562 377h177v1h-177ZM754 377h98v1h-98ZM866 377h70v1h-70ZM937 377h5v1h-5ZM987 377h71v1h-71ZM1075 377h161v1h-161ZM1245 377h78v1h-78ZM1350 377h96v1h-96ZM1460 377h68v1h-68ZM1573 377h62v1h-62ZM1651 377h73v1h-73ZM1737 377h66v1h-66ZM1850 377h59v1h-59ZM1921 377h172v1h-172ZM86 378h73v1h-73ZM200 378h84v1h-84ZM307 378h77v1h-77ZM402 378h141v1h-141ZM562 378h176v1h-176ZM754 378h98v1h-98ZM866 378h69v1h-69ZM986 378h72v1h-72ZM1075 378h161v1h-161ZM1245 378h78v1h-78ZM1350 378h95v1h-95ZM1460 378h68v1h-68ZM1573 378h62v1h-62ZM1651 378h73v1h-73ZM1737 378h66v1h-66ZM1850 378h59v1h-59ZM1921 378h172v1h-172ZM86 379h73v1h-73ZM200 379h84v1h-84ZM307 379h77v1h-77Z
    M401 379h142v1h-142ZM562 379h176v1h-176ZM753 379h99v1h-99ZM866 379h69v1h-69ZM984 379h1v1h-1ZM986 379h71v1h-71ZM1076 379h160v1h-160ZM1245 379h78v1h-78ZM1350 379h95v1h-95ZM1460 379h68v1h-68ZM1573 379h62v1h-62ZM1651 379h73v1h-73ZM1737 379h66v1h-66ZM1850 379h58v1h-58ZM1920 379h173v1h-173ZM86 380h73v1h-73ZM198 380h86v1h-86ZM307 380h76v1h-76ZM401 380h142v1h-142ZM562 380h176v1h-176ZM753 380h99v1h-99ZM865 380h70v1h-70ZM986 380h71v1h-71ZM1076 380h160v1h-160ZM1245 380h77v1h-77ZM1350 380h95v1h-95ZM1459 380h69v1h-69ZM1564 380h70v1h-70ZM1651 380h73v1h-73ZM1737 380h66v1h-66ZM1850 380h58v1h-58ZM1920 380h173v1h-173ZM86 381h72v1h-72ZM198 381h85v1h-85ZM307 381h76v1h-76ZM401 381h142v1h-142ZM561 381h177v1h-177ZM753 381h99v1h-99ZM865 381h70v1h-70ZM977 381h80v1h-80ZM1090 381h146v1h-146ZM1245 381h77v1h-77ZM1350 381h95v1h-95ZM1457 381h1v1h-1ZM1459 381h69v1h-69ZM1563 381h71v1h-71ZM1650 381h74v1h-74ZM1737 381h66v1h-66ZM1842 381h66v1h-66ZM1920 381h172v1h-172ZM86 382h72v1h-72ZM198 382h85v1h-85ZM303 382h80v1h-80ZM400 382h143v1h-143ZM561 382h177v1h-177ZM753 382h98v1h-98ZM865 382h70v1h-70ZM976 382h81v1h-81ZM1090 382h145v1h-145ZM1245 382h77v1h-77ZM1350 382h95v1h-95ZM1457 382h1v1h-1ZM1459 382h69v1h-69ZM1563 382h71v1h-71ZM1648 382h1v1h-1ZM1650 382h73v1h-73ZM1736 382h67v1h-67ZM1841 382h66v1h-66ZM1920 382h172v1h-172ZM85 383h73v1h-73ZM198 383h85v1h-85ZM302 383h81v1h-81ZM400 383h143v1h-143ZM561 383h177v1h-177ZM753 383h98v1h-98ZM852 383h1v1h-1ZM865 383h70v1h-70ZM976 383h81v1h-81ZM1089 383h146v1h-146ZM1245 383h77v1h-77ZM1350 383h94v1h-94ZM1458 383h70v1h-70ZM1562 383h71v1h-71ZM1646 383h3v1h-3ZM1650 383h73v1h-73ZM1736 383h67v1h-67ZM1841 383h66v1h-66ZM1920 383h172v1h-172ZM84 384h74v1h-74ZM198 384h85v1h-85ZM301 384h81v1h-81ZM400 384h142v1h-142ZM561 384h177v1h-177ZM752 384h99v1h-99ZM852 384h1v1h-1ZM864 384h71v1h-71ZM975 384h82v1h-82ZM1089 384h146v1h-146ZM1245 384h77v1h-77ZM1350 384h94v1h-94ZM1458 384h69v1h-69ZM1562 384h71v1h-71ZM1650 384h73v1h-73ZM1735 384h68v1h-68ZM1840 384h67v1h-67ZM1919 384h173v1h-173Z
    M84 385h74v1h-74ZM198 385h84v1h-84ZM301 385h81v1h-81ZM400 385h142v1h-142ZM561 385h177v1h-177ZM752 385h99v1h-99ZM864 385h71v1h-71ZM975 385h82v1h-82ZM1089 385h146v1h-146ZM1245 385h76v1h-76ZM1350 385h94v1h-94ZM1458 385h69v1h-69ZM1561 385h72v1h-72ZM1645 385h78v1h-78ZM1735 385h67v1h-67ZM1840 385h66v1h-66ZM1919 385h173v1h-173ZM84 386h74v1h-74ZM198 386h84v1h-84ZM301 386h81v1h-81ZM400 386h142v1h-142ZM560 386h177v1h-177ZM752 386h99v1h-99ZM864 386h70v1h-70ZM975 386h82v1h-82ZM1089 386h145v1h-145ZM1245 386h76v1h-76ZM1350 386h94v1h-94ZM1457 386h70v1h-70ZM1561 386h72v1h-72ZM1645 386h77v1h-77ZM1735 386h67v1h-67ZM1840 386h66v1h-66ZM1917 386h175v1h-175ZM84 387h74v1h-74ZM197 387h85v1h-85ZM301 387h81v1h-81ZM400 387h142v1h-142ZM560 387h177v1h-177ZM752 387h99v1h-99ZM864 387h70v1h-70ZM975 387h82v1h-82ZM1089 387h145v1h-145ZM1245 387h76v1h-76ZM1350 387h94v1h-94ZM1457 387h70v1h-70ZM1562 387h70v1h-70ZM1645 387h77v1h-77ZM1735 387h67v1h-67ZM1840 387h66v1h-66ZM1916 387h176v1h-176ZM84 388h75v1h-75ZM198 388h83v1h-83ZM301 388h81v1h-81ZM400 388h141v1h-141ZM560 388h177v1h-177ZM752 388h99v1h-99ZM864 388h70v1h-70ZM975 388h81v1h-81ZM1088 388h146v1h-146ZM1245 388h76v1h-76ZM1350 388h94v1h-94ZM1457 388h70v1h-70ZM1562 388h70v1h-70ZM1644 388h78v1h-78ZM1735 388h67v1h-67ZM1839 388h67v1h-67ZM1916 388h175v1h-175ZM84 389h75v1h-75ZM198 389h83v1h-83ZM300 389h82v1h-82ZM401 389h140v1h-140ZM560 389h176v1h-176ZM752 389h98v1h-98ZM864 389h71v1h-71ZM975 389h81v1h-81ZM1089 389h144v1h-144ZM1245 389h76v1h-76ZM1350 389h94v1h-94ZM1456 389h71v1h-71ZM1561 389h71v1h-71ZM1644 389h78v1h-78ZM1734 389h68v1h-68ZM1839 389h67v1h-67ZM1915 389h175v1h-175ZM85 390h73v1h-73ZM197 390h84v1h-84ZM300 390h82v1h-82ZM402 390h138v1h-138ZM559 390h177v1h-177ZM752 390h98v1h-98ZM863 390h71v1h-71ZM974 390h82v1h-82ZM1090 390h143v1h-143ZM1244 390h77v1h-77ZM1350 390h93v1h-93ZM1456 390h70v1h-70ZM1561 390h71v1h-71ZM1644 390h78v1h-78ZM1734 390h68v1h-68ZM1839 390h67v1h-67ZM1915 390h174v1h-174ZM84 391h74v1h-74ZM197 391h84v1h-84ZM300 391h82v1h-82Z
    M418 391h121v1h-121ZM559 391h177v1h-177ZM754 391h94v1h-94ZM863 391h71v1h-71ZM972 391h1v1h-1ZM974 391h82v1h-82ZM1090 391h143v1h-143ZM1244 391h76v1h-76ZM1351 391h90v1h-90ZM1455 391h71v1h-71ZM1561 391h71v1h-71ZM1643 391h79v1h-79ZM1733 391h68v1h-68ZM1837 391h1v1h-1ZM1839 391h65v1h-65ZM1915 391h119v1h-119ZM2043 391h38v1h-38ZM84 392h74v1h-74ZM197 392h84v1h-84ZM282 392h1v1h-1ZM300 392h82v1h-82ZM417 392h77v1h-77ZM559 392h177v1h-177ZM863 392h71v1h-71ZM972 392h1v1h-1ZM974 392h82v1h-82ZM1166 392h66v1h-66ZM1243 392h77v1h-77ZM1455 392h71v1h-71ZM1561 392h71v1h-71ZM1643 392h79v1h-79ZM1733 392h68v1h-68ZM1838 392h66v1h-66ZM1915 392h68v1h-68ZM84 393h74v1h-74ZM194 393h2v1h-2ZM197 393h84v1h-84ZM299 393h82v1h-82ZM417 393h76v1h-76ZM558 393h177v1h-177ZM862 393h72v1h-72ZM972 393h1v1h-1ZM974 393h82v1h-82ZM1165 393h67v1h-67ZM1243 393h77v1h-77ZM1322 393h3v1h-3ZM1455 393h71v1h-71ZM1561 393h70v1h-70ZM1643 393h79v1h-79ZM1733 393h68v1h-68ZM1838 393h66v1h-66ZM1915 393h69v1h-69ZM84 394h73v1h-73ZM190 394h3v1h-3ZM197 394h83v1h-83ZM299 394h82v1h-82ZM416 394h77v1h-77ZM558 394h177v1h-177ZM862 394h72v1h-72ZM936 394h3v1h-3ZM971 394h2v1h-2ZM974 394h81v1h-81ZM1165 394h67v1h-67ZM1243 394h76v1h-76ZM1455 394h71v1h-71ZM1556 394h3v1h-3ZM1560 394h71v1h-71ZM1643 394h77v1h-77ZM1733 394h68v1h-68ZM1832 394h72v1h-72ZM1914 394h70v1h-70ZM84 395h72v1h-72ZM193 395h87v1h-87ZM299 395h81v1h-81ZM416 395h76v1h-76ZM493 395h1v1h-1ZM558 395h177v1h-177ZM862 395h71v1h-71ZM974 395h80v1h-80ZM1165 395h67v1h-67ZM1243 395h76v1h-76ZM1320 395h24v1h-24ZM1455 395h71v1h-71ZM1560 395h70v1h-70ZM1643 395h77v1h-77ZM1733 395h68v1h-68ZM1838 395h65v1h-65ZM1914 395h70v1h-70ZM84 396h193v1h-193ZM299 396h78v1h-78ZM415 396h77v1h-77ZM493 396h1v1h-1ZM558 396h177v1h-177ZM862 396h191v1h-191ZM1164 396h67v1h-67ZM1243 396h102v1h-102ZM1455 396h174v1h-174ZM1643 396h76v1h-76ZM1733 396h170v1h-170ZM1904 396h1v1h-1ZM1914 396h70v1h-70ZM84 397h193v1h-193ZM299 397h78v1h-78ZM415 397h77v1h-77ZM558 397h176v1h-176ZM862 397h190v1h-190ZM1164 397h67v1h-67ZM1232 397h1v1h-1Z
    M1243 397h103v1h-103ZM1454 397h174v1h-174ZM1643 397h75v1h-75ZM1732 397h171v1h-171ZM1904 397h1v1h-1ZM1914 397h70v1h-70ZM84 398h192v1h-192ZM299 398h77v1h-77ZM413 398h1v1h-1ZM415 398h76v1h-76ZM558 398h175v1h-175ZM862 398h190v1h-190ZM1162 398h1v1h-1ZM1164 398h67v1h-67ZM1232 398h1v1h-1ZM1243 398h103v1h-103ZM1454 398h174v1h-174ZM1643 398h75v1h-75ZM1732 398h171v1h-171ZM1904 398h1v1h-1ZM1914 398h69v1h-69ZM84 399h192v1h-192ZM299 399h77v1h-77ZM413 399h1v1h-1ZM415 399h76v1h-76ZM558 399h175v1h-175ZM862 399h190v1h-190ZM1164 399h67v1h-67ZM1243 399h103v1h-103ZM1454 399h174v1h-174ZM1643 399h75v1h-75ZM1732 399h171v1h-171ZM1914 399h69v1h-69ZM84 400h192v1h-192ZM299 400h76v1h-76ZM415 400h76v1h-76ZM558 400h175v1h-175ZM862 400h190v1h-190ZM1164 400h66v1h-66ZM1231 400h1v1h-1ZM1243 400h103v1h-103ZM1454 400h173v1h-173ZM1643 400h75v1h-75ZM1732 400h170v1h-170ZM1914 400h69v1h-69ZM84 401h192v1h-192ZM299 401h76v1h-76ZM415 401h75v1h-75ZM558 401h174v1h-174ZM861 401h190v1h-190ZM1161 401h1v1h-1ZM1163 401h67v1h-67ZM1231 401h1v1h-1ZM1243 401h103v1h-103ZM1453 401h174v1h-174ZM1643 401h75v1h-75ZM1732 401h170v1h-170ZM1914 401h68v1h-68ZM1983 401h4v1h-4ZM83 402h193v1h-193ZM299 402h76v1h-76ZM414 402h76v1h-76ZM558 402h174v1h-174ZM861 402h190v1h-190ZM1164 402h66v1h-66ZM1243 402h103v1h-103ZM1453 402h174v1h-174ZM1643 402h74v1h-74ZM1731 402h171v1h-171ZM1914 402h68v1h-68ZM83 403h193v1h-193ZM299 403h75v1h-75ZM414 403h76v1h-76ZM559 403h173v1h-173ZM861 403h190v1h-190ZM1068 403h162v1h-162ZM1243 403h103v1h-103ZM1453 403h174v1h-174ZM1642 403h75v1h-75ZM1731 403h171v1h-171ZM1914 403h168v1h-168ZM83 404h192v1h-192ZM299 404h75v1h-75ZM414 404h77v1h-77ZM560 404h11v1h-11ZM572 404h160v1h-160ZM861 404h190v1h-190ZM1066 404h163v1h-163ZM1242 404h103v1h-103ZM1453 404h174v1h-174ZM1642 404h75v1h-75ZM1729 404h1v1h-1ZM1731 404h170v1h-170ZM1912 404h1v1h-1ZM1914 404h170v1h-170ZM83 405h192v1h-192ZM298 405h76v1h-76ZM414 405h77v1h-77ZM571 405h161v1h-161ZM860 405h191v1h-191ZM1065 405h163v1h-163ZM1239 405h1v1h-1ZM1243 405h102v1h-102Z
    M1452 405h174v1h-174ZM1641 405h76v1h-76ZM1729 405h1v1h-1ZM1731 405h170v1h-170ZM1912 405h1v1h-1ZM1914 405h170v1h-170ZM82 406h193v1h-193ZM295 406h2v1h-2ZM298 406h76v1h-76ZM414 406h77v1h-77ZM571 406h161v1h-161ZM860 406h190v1h-190ZM1065 406h163v1h-163ZM1241 406h104v1h-104ZM1452 406h174v1h-174ZM1641 406h75v1h-75ZM1728 406h1v1h-1ZM1730 406h171v1h-171ZM1914 406h170v1h-170ZM82 407h193v1h-193ZM298 407h76v1h-76ZM413 407h77v1h-77ZM571 407h160v1h-160ZM860 407h190v1h-190ZM1064 407h164v1h-164ZM1238 407h106v1h-106ZM1452 407h174v1h-174ZM1642 407h74v1h-74ZM1728 407h1v1h-1ZM1730 407h171v1h-171ZM1912 407h172v1h-172ZM81 408h194v1h-194ZM292 408h82v1h-82ZM413 408h77v1h-77ZM571 408h160v1h-160ZM859 408h191v1h-191ZM1064 408h165v1h-165ZM1238 408h106v1h-106ZM1452 408h174v1h-174ZM1641 408h75v1h-75ZM1730 408h171v1h-171ZM1908 408h1v1h-1ZM1910 408h174v1h-174ZM79 409h196v1h-196ZM291 409h82v1h-82ZM413 409h78v1h-78ZM570 409h161v1h-161ZM858 409h192v1h-192ZM1063 409h165v1h-165ZM1237 409h107v1h-107ZM1451 409h175v1h-175ZM1641 409h75v1h-75ZM1730 409h171v1h-171ZM1905 409h4v1h-4ZM1910 409h174v1h-174ZM79 410h195v1h-195ZM291 410h82v1h-82ZM413 410h78v1h-78ZM570 410h161v1h-161ZM858 410h192v1h-192ZM1063 410h165v1h-165ZM1237 410h107v1h-107ZM1451 410h174v1h-174ZM1641 410h75v1h-75ZM1730 410h171v1h-171ZM1904 410h4v1h-4ZM1909 410h174v1h-174ZM79 411h195v1h-195ZM291 411h82v1h-82ZM413 411h78v1h-78ZM570 411h160v1h-160ZM858 411h192v1h-192ZM1063 411h164v1h-164ZM1228 411h1v1h-1ZM1236 411h108v1h-108ZM1451 411h174v1h-174ZM1641 411h74v1h-74ZM1730 411h171v1h-171ZM1905 411h1v1h-1ZM1907 411h1v1h-1ZM1909 411h174v1h-174ZM79 412h195v1h-195ZM290 412h83v1h-83ZM413 412h77v1h-77ZM570 412h160v1h-160ZM858 412h192v1h-192ZM1063 412h164v1h-164ZM1236 412h107v1h-107ZM1451 412h174v1h-174ZM1640 412h75v1h-75ZM1729 412h171v1h-171ZM1909 412h174v1h-174ZM78 413h196v1h-196ZM290 413h83v1h-83ZM413 413h77v1h-77ZM570 413h160v1h-160ZM858 413h192v1h-192ZM1063 413h157v1h-157ZM1236 413h107v1h-107ZM1451 413h174v1h-174ZM1640 413h75v1h-75ZM1729 413h171v1h-171Z
    M1909 413h174v1h-174ZM78 414h196v1h-196ZM290 414h82v1h-82ZM412 414h78v1h-78ZM570 414h159v1h-159ZM858 414h191v1h-191ZM1063 414h157v1h-157ZM1221 414h1v1h-1ZM1236 414h107v1h-107ZM1451 414h173v1h-173ZM1640 414h75v1h-75ZM1729 414h170v1h-170ZM1908 414h174v1h-174ZM78 415h196v1h-196ZM290 415h82v1h-82ZM412 415h78v1h-78ZM571 415h158v1h-158ZM858 415h191v1h-191ZM1063 415h157v1h-157ZM1236 415h107v1h-107ZM1448 415h1v1h-1ZM1450 415h173v1h-173ZM1640 415h74v1h-74ZM1727 415h1v1h-1ZM1729 415h169v1h-169ZM1908 415h174v1h-174ZM78 416h196v1h-196ZM290 416h82v1h-82ZM412 416h77v1h-77ZM572 416h157v1h-157ZM857 416h192v1h-192ZM1063 416h157v1h-157ZM1236 416h106v1h-106ZM1450 416h173v1h-173ZM1638 416h1v1h-1ZM1640 416h74v1h-74ZM1729 416h161v1h-161ZM1908 416h174v1h-174ZM77 417h197v1h-197ZM289 417h83v1h-83ZM412 417h77v1h-77ZM572 417h39v1h-39ZM660 417h69v1h-69ZM857 417h192v1h-192ZM1060 417h2v1h-2ZM1063 417h156v1h-156ZM1235 417h107v1h-107ZM1446 417h176v1h-176ZM1639 417h75v1h-75ZM1724 417h165v1h-165ZM1891 417h1v1h-1ZM1893 417h1v1h-1ZM1908 417h174v1h-174ZM77 418h197v1h-197ZM289 418h83v1h-83ZM405 418h84v1h-84ZM660 418h69v1h-69ZM857 418h192v1h-192ZM1063 418h156v1h-156ZM1235 418h107v1h-107ZM1445 418h170v1h-170ZM1634 418h80v1h-80ZM1718 418h1v1h-1ZM1723 418h166v1h-166ZM1907 418h174v1h-174ZM78 419h196v1h-196ZM289 419h83v1h-83ZM405 419h84v1h-84ZM660 419h68v1h-68ZM857 419h192v1h-192ZM1058 419h161v1h-161ZM1235 419h107v1h-107ZM1445 419h170v1h-170ZM1634 419h80v1h-80ZM1718 419h2v1h-2ZM1723 419h166v1h-166ZM1907 419h174v1h-174ZM77 420h197v1h-197ZM287 420h1v1h-1ZM289 420h83v1h-83ZM404 420h85v1h-85ZM660 420h68v1h-68ZM856 420h193v1h-193ZM1056 420h163v1h-163ZM1235 420h107v1h-107ZM1445 420h169v1h-169ZM1633 420h81v1h-81ZM1717 420h4v1h-4ZM1722 420h167v1h-167ZM1907 420h174v1h-174ZM77 421h196v1h-196ZM289 421h83v1h-83ZM404 421h84v1h-84ZM659 421h69v1h-69ZM856 421h193v1h-193ZM1050 421h1v1h-1ZM1055 421h163v1h-163ZM1235 421h107v1h-107ZM1444 421h170v1h-170ZM1633 421h81v1h-81ZM1717 421h4v1h-4ZM1722 421h167v1h-167Z
    M1907 421h174v1h-174ZM77 422h196v1h-196ZM289 422h82v1h-82ZM403 422h85v1h-85ZM659 422h68v1h-68ZM856 422h192v1h-192ZM1051 422h2v1h-2ZM1054 422h164v1h-164ZM1234 422h107v1h-107ZM1444 422h170v1h-170ZM1633 422h81v1h-81ZM1718 422h1v1h-1ZM1722 422h166v1h-166ZM1907 422h173v1h-173ZM77 423h195v1h-195ZM288 423h83v1h-83ZM403 423h84v1h-84ZM659 423h63v1h-63ZM856 423h192v1h-192ZM1051 423h2v1h-2ZM1054 423h164v1h-164ZM1234 423h107v1h-107ZM1444 423h170v1h-170ZM1633 423h80v1h-80ZM1722 423h166v1h-166ZM1907 423h173v1h-173ZM76 424h196v1h-196ZM288 424h82v1h-82ZM403 424h76v1h-76ZM659 424h63v1h-63ZM855 424h192v1h-192ZM1054 424h163v1h-163ZM1234 424h102v1h-102ZM1337 424h2v1h-2ZM1444 424h169v1h-169ZM1633 424h79v1h-79ZM1721 424h167v1h-167ZM1906 424h174v1h-174ZM75 425h190v1h-190ZM288 425h76v1h-76ZM403 425h77v1h-77ZM481 425h1v1h-1ZM658 425h64v1h-64ZM855 425h185v1h-185ZM1054 425h164v1h-164ZM1233 425h102v1h-102ZM1444 425h169v1h-169ZM1632 425h75v1h-75ZM1721 425h167v1h-167ZM1906 425h174v1h-174ZM75 426h190v1h-190ZM288 426h76v1h-76ZM403 426h77v1h-77ZM658 426h64v1h-64ZM855 426h185v1h-185ZM1054 426h164v1h-164ZM1233 426h102v1h-102ZM1444 426h169v1h-169ZM1632 426h75v1h-75ZM1721 426h166v1h-166ZM1905 426h175v1h-175ZM76 427h189v1h-189ZM288 427h76v1h-76ZM403 427h76v1h-76ZM658 427h64v1h-64ZM855 427h185v1h-185ZM1054 427h163v1h-163ZM1233 427h102v1h-102ZM1443 427h170v1h-170ZM1632 427h75v1h-75ZM1721 427h166v1h-166ZM1905 427h175v1h-175ZM76 428h189v1h-189ZM288 428h76v1h-76ZM403 428h76v1h-76ZM658 428h64v1h-64ZM855 428h185v1h-185ZM1054 428h163v1h-163ZM1233 428h102v1h-102ZM1443 428h170v1h-170ZM1632 428h74v1h-74ZM1721 428h166v1h-166ZM1905 428h175v1h-175ZM75 429h190v1h-190ZM288 429h76v1h-76ZM403 429h76v1h-76ZM657 429h65v1h-65ZM855 429h185v1h-185ZM1053 429h164v1h-164ZM1233 429h102v1h-102ZM1443 429h170v1h-170ZM1632 429h74v1h-74ZM1721 429h166v1h-166ZM1905 429h175v1h-175ZM76 430h189v1h-189ZM288 430h76v1h-76ZM403 430h76v1h-76ZM654 430h2v1h-2ZM657 430h65v1h-65ZM855 430h185v1h-185ZM1041 430h1v1h-1ZM1053 430h163v1h-163Z
    M1233 430h102v1h-102ZM1443 430h169v1h-169ZM1613 430h1v1h-1ZM1632 430h74v1h-74ZM1721 430h166v1h-166ZM1905 430h174v1h-174ZM76 431h189v1h-189ZM287 431h76v1h-76ZM403 431h76v1h-76ZM553 431h11v1h-11ZM657 431h65v1h-65ZM856 431h184v1h-184ZM1041 431h1v1h-1ZM1053 431h162v1h-162ZM1234 431h101v1h-101ZM1441 431h171v1h-171ZM1632 431h74v1h-74ZM1721 431h165v1h-165ZM1906 431h172v1h-172ZM77 432h188v1h-188ZM287 432h76v1h-76ZM403 432h75v1h-75ZM552 432h169v1h-169ZM857 432h184v1h-184ZM1053 432h162v1h-162ZM1235 432h100v1h-100ZM1441 432h170v1h-170ZM1632 432h74v1h-74ZM1721 432h164v1h-164ZM1907 432h170v1h-170ZM89 433h176v1h-176ZM287 433h76v1h-76ZM403 433h75v1h-75ZM551 433h170v1h-170ZM869 433h170v1h-170ZM1040 433h1v1h-1ZM1053 433h150v1h-150ZM1248 433h86v1h-86ZM1441 433h158v1h-158ZM1632 433h73v1h-73ZM1721 433h153v1h-153ZM1908 433h5v1h-5ZM1917 433h150v1h-150ZM89 434h175v1h-175ZM287 434h75v1h-75ZM403 434h75v1h-75ZM551 434h170v1h-170ZM869 434h170v1h-170ZM1040 434h1v1h-1ZM1053 434h150v1h-150ZM1248 434h86v1h-86ZM1441 434h158v1h-158ZM1600 434h1v1h-1ZM1602 434h3v1h-3ZM1632 434h73v1h-73ZM1721 434h153v1h-153ZM1919 434h148v1h-148ZM2070 434h3v1h-3ZM89 435h175v1h-175ZM287 435h75v1h-75ZM403 435h74v1h-74ZM550 435h171v1h-171ZM869 435h170v1h-170ZM1040 435h1v1h-1ZM1053 435h150v1h-150ZM1247 435h87v1h-87ZM1441 435h158v1h-158ZM1632 435h73v1h-73ZM1721 435h152v1h-152ZM1919 435h148v1h-148ZM89 436h175v1h-175ZM287 436h75v1h-75ZM403 436h74v1h-74ZM550 436h170v1h-170ZM869 436h169v1h-169ZM1053 436h150v1h-150ZM1247 436h87v1h-87ZM1441 436h158v1h-158ZM1632 436h73v1h-73ZM1720 436h153v1h-153ZM1919 436h148v1h-148ZM89 437h175v1h-175ZM287 437h75v1h-75ZM403 437h74v1h-74ZM550 437h170v1h-170ZM869 437h169v1h-169ZM1053 437h150v1h-150ZM1247 437h87v1h-87ZM1440 437h159v1h-159ZM1632 437h73v1h-73ZM1720 437h153v1h-153ZM1918 437h149v1h-149ZM89 438h174v1h-174ZM287 438h75v1h-75ZM403 438h74v1h-74ZM549 438h171v1h-171ZM869 438h169v1h-169ZM1053 438h150v1h-150ZM1247 438h86v1h-86ZM1440 438h158v1h-158ZM1632 438h73v1h-73ZM1720 438h153v1h-153Z
    M1918 438h148v1h-148ZM89 439h174v1h-174ZM286 439h75v1h-75ZM402 439h74v1h-74ZM549 439h171v1h-171ZM869 439h169v1h-169ZM1053 439h149v1h-149ZM1247 439h86v1h-86ZM1440 439h158v1h-158ZM1631 439h73v1h-73ZM1720 439h152v1h-152ZM1918 439h148v1h-148ZM88 440h175v1h-175ZM286 440h74v1h-74ZM402 440h74v1h-74ZM549 440h171v1h-171ZM868 440h169v1h-169ZM1052 440h150v1h-150ZM1246 440h87v1h-87ZM1440 440h158v1h-158ZM1630 440h74v1h-74ZM1720 440h152v1h-152ZM1918 440h148v1h-148ZM87 441h176v1h-176ZM286 441h75v1h-75ZM402 441h74v1h-74ZM549 441h171v1h-171ZM868 441h169v1h-169ZM1052 441h150v1h-150ZM1246 441h87v1h-87ZM1439 441h159v1h-159ZM1630 441h74v1h-74ZM1719 441h153v1h-153ZM1917 441h149v1h-149ZM87 442h176v1h-176ZM286 442h74v1h-74ZM402 442h74v1h-74ZM548 442h172v1h-172ZM868 442h169v1h-169ZM1052 442h150v1h-150ZM1246 442h87v1h-87ZM1439 442h159v1h-159ZM1630 442h74v1h-74ZM1719 442h153v1h-153ZM1917 442h149v1h-149ZM87 443h176v1h-176ZM286 443h74v1h-74ZM402 443h74v1h-74ZM548 443h172v1h-172ZM868 443h169v1h-169ZM1052 443h150v1h-150ZM1246 443h87v1h-87ZM1440 443h157v1h-157ZM1630 443h74v1h-74ZM1719 443h153v1h-153ZM1917 443h149v1h-149ZM87 444h175v1h-175ZM286 444h74v1h-74ZM402 444h74v1h-74ZM549 444h171v1h-171ZM868 444h169v1h-169ZM1052 444h149v1h-149ZM1246 444h86v1h-86ZM1440 444h157v1h-157ZM1630 444h74v1h-74ZM1719 444h153v1h-153ZM1917 444h148v1h-148ZM87 445h175v1h-175ZM286 445h74v1h-74ZM402 445h73v1h-73ZM549 445h170v1h-170ZM868 445h169v1h-169ZM1052 445h149v1h-149ZM1246 445h86v1h-86ZM1439 445h158v1h-158ZM1630 445h73v1h-73ZM1718 445h153v1h-153ZM1918 445h147v1h-147ZM88 446h172v1h-172ZM287 446h72v1h-72ZM403 446h71v1h-71ZM549 446h170v1h-170ZM869 446h166v1h-166ZM1053 446h146v1h-146ZM1247 446h84v1h-84ZM1439 446h157v1h-157ZM1632 446h69v1h-69ZM1718 446h152v1h-152ZM1919 446h145v1h-145ZM89 447h170v1h-170ZM288 447h68v1h-68ZM404 447h69v1h-69ZM549 447h169v1h-169ZM870 447h162v1h-162ZM1033 447h1v1h-1ZM1054 447h144v1h-144ZM1248 447h81v1h-81ZM1439 447h156v1h-156ZM1632 447h69v1h-69ZM1718 447h151v1h-151ZM1919 447h143v1h-143Z
    M548 448h162v1h-162ZM1439 448h70v1h-70ZM1718 448h67v1h-67ZM548 449h162v1h-162ZM1439 449h70v1h-70ZM1514 449h2v1h-2ZM1718 449h57v1h-57ZM1776 449h9v1h-9ZM1790 449h3v1h-3ZM548 450h162v1h-162ZM1438 450h71v1h-71ZM1718 450h67v1h-67ZM548 451h162v1h-162ZM1438 451h71v1h-71ZM1713 451h3v1h-3ZM1717 451h68v1h-68ZM545 452h165v1h-165ZM1438 452h71v1h-71ZM1718 452h67v1h-67ZM544 453h166v1h-166ZM1438 453h71v1h-71ZM1713 453h72v1h-72ZM542 454h167v1h-167ZM1433 454h76v1h-76ZM1712 454h72v1h-72ZM540 455h169v1h-169ZM1433 455h76v1h-76ZM1711 455h73v1h-73ZM540 456h169v1h-169ZM1432 456h77v1h-77ZM1710 456h74v1h-74ZM540 457h169v1h-169ZM1432 457h76v1h-76ZM1710 457h74v1h-74ZM540 458h169v1h-169ZM1432 458h71v1h-71ZM1710 458h72v1h-72ZM540 459h168v1h-168ZM1432 459h75v1h-75ZM1710 459h72v1h-72ZM540 460h168v1h-168ZM1432 460h72v1h-72ZM1710 460h71v1h-71ZM540 461h167v1h-167ZM1432 461h71v1h-71ZM1710 461h71v1h-71ZM540 462h155v1h-155ZM1432 462h71v1h-71ZM1710 462h71v1h-71ZM540 463h155v1h-155ZM696 463h5v1h-5ZM1432 463h71v1h-71ZM1710 463h71v1h-71ZM540 464h155v1h-155ZM696 464h1v1h-1ZM1432 464h71v1h-71ZM1710 464h71v1h-71ZM540 465h155v1h-155ZM1432 465h71v1h-71ZM1710 465h70v1h-70ZM540 466h154v1h-154ZM695 466h1v1h-1ZM1433 466h69v1h-69ZM1710 466h70v1h-70ZM540 467h154v1h-154ZM1433 467h69v1h-69ZM1710 467h70v1h-70ZM540 468h154v1h-154ZM1432 468h70v1h-70ZM1709 468h71v1h-71ZM539 469h155v1h-155ZM1432 469h69v1h-69ZM1709 469h70v1h-70ZM539 470h155v1h-155ZM1431 470h70v1h-70ZM1709 470h70v1h-70ZM538 471h156v1h-156ZM1431 471h70v1h-70ZM1709 471h70v1h-70ZM539 472h155v1h-155ZM1432 472h69v1h-69ZM1709 472h70v1h-70ZM539 473h154v1h-154ZM1432 473h69v1h-69ZM1709 473h70v1h-70ZM539 474h154v1h-154ZM1432 474h69v1h-69ZM1709 474h70v1h-70ZM540 475h151v1h-151ZM1433 475h66v1h-66ZM1710 475h67v1h-67ZM540 476h150v1h-150ZM1434 476h64v1h-64ZM1710 476h66v1h-66Z" fill="url(#bluePixelGradient)" shape-rendering="crispEdges"/>
</svg>
